<svg width="40" height="40" viewBox="0 0 40 40" xmlns="http://www.w3.org/2000/svg" fill="none"><style>.a{fill:white;}</style><rect width="40" height="40" rx="20" fill="#FF3E79"/><path d="M28 11H12C10.9 11 10 11.9 10 13L10 31 14 26H28C29.1 26 30 25.1 30 24V13C30 11.9 29.1 11 28 11ZM21 22H15C14.5 22 14 21.6 14 21 14 20.5 14.5 20 15 20H21C21.6 20 22 20.5 22 21 22 21.6 21.6 22 21 22ZM25 17H15C14.5 17 14 16.6 14 16 14 15.5 14.5 15 15 15H25C25.6 15 26 15.5 26 16 26 16.6 25.6 17 25 17Z" class="a"/><mask mask-type="alpha" maskUnits="userSpaceOnUse" x="10" y="11" width="20" height="20"><path d="M28 11H12C10.9 11 10 11.9 10 13L10 31 14 26H28C29.1 26 30 25.1 30 24V13C30 11.9 29.1 11 28 11ZM21 22H15C14.5 22 14 21.6 14 21 14 20.5 14.5 20 15 20H21C21.6 20 22 20.5 22 21 22 21.6 21.6 22 21 22ZM25 17H15C14.5 17 14 16.6 14 16 14 15.5 14.5 15 15 15H25C25.6 15 26 15.5 26 16 26 16.6 25.6 17 25 17Z" class="a"/></mask></svg>