<svg width="98" height="52" viewBox="0 0 98 52" xmlns="http://www.w3.org/2000/svg" fill="none"><style>.a{fill:#6B7B84;stroke-width:0.5;stroke:#80949F;}.b{fill:#6B7B84;}.c{stroke-width:0.5;stroke:#80949F;}</style><path d="M36.6 0.6C36 0.6 35.6 1 35.6 1.6V5.9C35.6 6.4 36 6.9 36.6 6.9H72.9C83 6.9 91 14.7 91 24.8 91 25 91.2 25.3 91.5 25.3H96.8C97 25.3 97.3 25 97.3 24.8 97.3 11.3 86.4 0.6 72.9 0.6H36.6Z" class="a"/><path d="M7.1 25.7C7.1 25.5 6.9 25.3 6.7 25.3H1.2C0.9 25.3 0.7 25.5 0.7 25.7 0.7 39.4 10.9 50.6 24.2 51.4L66.5 51.4C67.1 51.4 67.5 51 67.5 50.4V45.8C67.5 45.3 67.1 44.8 66.5 44.8H25.6C15.4 44.8 7.1 36.3 7.1 25.7Z" class="a"/><path d="M28.1 39.8C30.9 39.8 33.2 39.3 35.4 38.2L35.6 38V30.2L34.7 31.3C33.1 33 30.9 34 28.5 34 23.9 34 19.3 31 19.3 25.4 19.3 21.1 22.4 16.5 28.3 16.5 29.5 16.5 32.3 16.8 34.7 19.4L35.6 20.4V12.6L35.4 12.5C33.1 11.3 30.8 10.8 28.1 10.8 23.5 10.8 20 12 17.1 14.4 15.3 16 12.3 19.4 12.3 25.3 12.3 29.6 13.9 33 17.2 35.9 20.2 38.6 23.6 39.8 28.1 39.8Z" class="b"/><path d="M28.1 39.8C30.9 39.8 33.2 39.3 35.4 38.2L35.6 38V30.2L34.7 31.3C33.1 33 30.9 34 28.5 34 23.9 34 19.3 31 19.3 25.4 19.3 21.1 22.4 16.5 28.3 16.5 29.5 16.5 32.3 16.8 34.7 19.4L35.6 20.4V12.6L35.4 12.5C33.1 11.3 30.8 10.8 28.1 10.8 23.5 10.8 20 12 17.1 14.4 15.3 16 12.3 19.4 12.3 25.3 12.3 29.6 13.9 33 17.2 35.9 20.2 38.6 23.6 39.8 28.1 39.8" class="c"/><path d="M47.9 17.3H49.3C50.5 17.3 52 17.4 53 18.1 53.6 18.5 54.4 19.3 54.4 20.9 54.4 22.1 53.9 23.1 53.1 23.8 52 24.6 50.7 24.5 49.6 24.5H47.9V17.3ZM51 29.8C54.2 29.8 56.7 28.9 58.5 27.1 60.7 25 61 22 61 20.4 61 18.8 60.6 15.5 57.9 13.1 55.7 11.2 53.4 10.8 50.1 10.8H41.4V39.8H48V29.8H51Z" class="b"/><path d="M47.9 17.3V17H47.7V17.3H47.9ZM53 18.1L53.2 17.9 53.2 17.9 53 18.1ZM53.1 23.8L53.2 24 53.2 24 53.1 23.8ZM47.9 24.5H47.7V24.8H47.9V24.5ZM58.5 27.1L58.3 27 58.3 27 58.5 27.1ZM57.9 13.1L58.1 13 58.1 13 57.9 13.1ZM41.4 10.8V10.5H41.1V10.8H41.4ZM41.4 39.8H41.1V40H41.4V39.8ZM48 39.8V40H48.3V39.8H48ZM48 29.8V29.6H47.8V29.8H48ZM47.9 17.5H49.3V17H47.9V17.5ZM49.3 17.5C50.5 17.5 51.9 17.6 52.9 18.3L53.2 17.9C52 17.1 50.5 17 49.3 17V17.5ZM52.9 18.3C53.4 18.6 54.2 19.4 54.2 20.9H54.7C54.7 19.2 53.7 18.3 53.2 17.9L52.9 18.3ZM54.2 20.9C54.2 22 53.7 23 52.9 23.6L53.2 24C54.1 23.3 54.7 22.2 54.7 20.9H54.2ZM52.9 23.6C51.9 24.3 50.7 24.3 49.6 24.3V24.8C50.7 24.8 52 24.9 53.2 24L52.9 23.6ZM49.6 24.3H47.9V24.8H49.6V24.3ZM48.2 24.5V17.3H47.7V24.5H48.2ZM51 30.1C54.3 30.1 56.9 29.1 58.7 27.3L58.3 27C56.6 28.7 54.2 29.6 51 29.6V30.1ZM58.7 27.3C60.9 25.1 61.2 22 61.2 20.4H60.7C60.7 22 60.4 24.9 58.3 27L58.7 27.3ZM61.2 20.4C61.2 18.7 60.8 15.4 58.1 13L57.8 13.3C60.3 15.6 60.7 18.8 60.7 20.4H61.2ZM58.1 13C55.8 11 53.4 10.5 50.1 10.5V11C53.4 11 55.6 11.5 57.8 13.3L58.1 13ZM50.1 10.5H41.4V11H50.1V10.5ZM41.1 10.8V39.8H41.6V10.8H41.1ZM41.4 40H48V39.5H41.4V40ZM48.3 39.8V29.8H47.8V39.8H48.3ZM48 30.1H51V29.6H48V30.1Z" fill="#80949F"/><path d="M81 24.5C79.5 23.2 77.5 22.4 75.2 21.7 73.6 21.1 72.7 20.8 72.1 20.2 71.6 19.8 71.4 19.4 71.4 18.8 71.4 17.6 72.2 16.2 74.6 16.2 76.3 16.2 77.7 16.9 78.7 18.3L79.1 18.8 82.7 14.4 82.3 14C80.2 11.9 77.4 10.8 74.1 10.8 67.7 10.8 64.8 15 64.8 19.1 64.8 21.4 65.6 23.2 67.1 24.5 68.5 25.7 70.3 26.4 71.9 27L72.1 27C73.6 27.5 75.1 28 76 28.8 76.6 29.4 76.9 30 76.9 30.8 76.9 32.7 75.4 34 73.2 34 71.4 34 69.1 33.2 67.8 30.7L67.5 30.1 63.2 34.1 63.4 34.5C64.8 36.5 68 39.8 73.4 39.8 79.3 39.8 83.5 36 83.5 30.5 83.5 27.3 82.1 25.5 81 24.5Z" class="b"/><path d="M81 24.5C79.5 23.2 77.5 22.4 75.2 21.7 73.6 21.1 72.7 20.8 72.1 20.2 71.6 19.8 71.4 19.4 71.4 18.8 71.4 17.6 72.2 16.2 74.6 16.2 76.3 16.2 77.7 16.9 78.7 18.3L79.1 18.8 82.7 14.4 82.3 14C80.2 11.9 77.4 10.8 74.1 10.8 67.7 10.8 64.8 15 64.8 19.1 64.8 21.4 65.6 23.2 67.1 24.5 68.5 25.7 70.3 26.4 71.9 27L72.1 27C73.6 27.5 75.1 28 76 28.8 76.6 29.4 76.9 30 76.9 30.8 76.9 32.7 75.4 34 73.2 34 71.4 34 69.1 33.2 67.8 30.7L67.5 30.1 63.2 34.1 63.4 34.5C64.8 36.5 68 39.8 73.4 39.8 79.3 39.8 83.5 36 83.5 30.5 83.5 27.3 82.1 25.5 81 24.5" class="c"/></svg>