<svg width="40" height="40" viewBox="0 0 40 40" xmlns="http://www.w3.org/2000/svg" fill="none"><rect width="40" height="40" rx="20" fill="#FF3E79"/><path d="M12 11C12 10.4 12.4 10 13 10H27C27.6 10 28 10.4 28 11V28.5C27.2 28.5 26.5 29.2 26.5 30H25.5C25.5 29.2 24.8 28.5 24 28.5 23.2 28.5 22.5 29.2 22.5 30H21.5C21.5 29.2 20.8 28.5 20 28.5 19.2 28.5 18.5 29.2 18.5 30H17.5C17.5 29.2 16.8 28.5 16 28.5 15.2 28.5 14.5 29.2 14.5 30H13.5C13.5 29.2 12.8 28.5 12 28.5V11ZM21.4 21.8C20.6 22.3 19.5 22.6 18.3 22.4 16.5 22 15.1 20.5 14.9 18.7 14.5 15.8 16.9 13.4 19.9 13.9 21.7 14.2 23.1 15.6 23.4 17.4 23.6 18.5 23.3 19.6 22.8 20.4L24.9 22.5C25.3 22.9 25.3 23.5 24.9 23.9 24.5 24.3 23.9 24.3 23.5 23.9L21.4 21.8ZM16.7 18.1C16.7 16.8 17.8 15.7 19.1 15.7 20.4 15.7 21.4 16.8 21.4 18.1 21.4 19.4 20.4 20.4 19.1 20.4 17.8 20.4 16.7 19.4 16.7 18.1Z" style="clip-rule:evenodd;fill-rule:evenodd;fill:white"/></svg>