<svg width="40" height="40" viewBox="0 0 40 40" xmlns="http://www.w3.org/2000/svg" fill="none"><rect width="40" height="40" rx="20" fill="#FF3E79"/><path d="M13.8 12.3C13.4 11.9 12.8 11.9 12.4 12.3L12.3 12.4C11.9 12.8 11.9 13.4 12.3 13.8L18.5 20 12.3 26.2C11.9 26.6 11.9 27.2 12.3 27.6L12.4 27.7C12.8 28.1 13.4 28.1 13.8 27.7L20 21.5 26.2 27.7C26.6 28.1 27.2 28.1 27.6 27.7L27.7 27.6C28.1 27.2 28.1 26.6 27.7 26.2L21.5 20 27.7 13.8C28.1 13.4 28.1 12.8 27.7 12.4L27.6 12.3C27.2 11.9 26.6 11.9 26.2 12.3L20 18.5 13.8 12.3Z" fill="white"/></svg>