<svg width="40" height="40" viewBox="0 0 40 40" xmlns="http://www.w3.org/2000/svg" fill="none"><rect width="40" height="40" rx="20" fill="#FF3E79"/><path d="M23.5 22H22.7L22.4 21.7C23.6 20.3 24.3 18.4 23.9 16.4 23.4 13.6 21.1 11.4 18.3 11.1 14.1 10.5 10.5 14.1 11.1 18.3 11.4 21.1 13.6 23.4 16.4 23.9 18.4 24.3 20.3 23.6 21.7 22.4L22 22.7V23.5L26.3 27.8C26.7 28.2 27.3 28.2 27.7 27.8L27.8 27.7C28.2 27.3 28.2 26.7 27.8 26.3L23.5 22ZM17.5 22C15 22 13 20 13 17.5 13 15 15 13 17.5 13 20 13 22 15 22 17.5 22 20 20 22 17.5 22Z" fill="white"/></svg>