<svg width="40" height="40" viewBox="0 0 40 40" xmlns="http://www.w3.org/2000/svg" fill="none"><style>.a{fill:white;}</style><rect width="40" height="40" rx="20" fill="#FF3E79"/><path d="M18.3 23.5L18.7 23 17 21.3 16.5 21.7 16.3 21.5C16 21.2 15.7 21 15.4 21 15.1 21 14.9 21.2 14.7 21.4 14.5 21.8 14.6 22.3 14.7 22.6 14.7 22.6 14.7 22.7 14.7 22.8 14.7 22.9 14.7 23 14.4 23.1 14 23.2 13.5 23.3 12.9 23.6 12.2 24 11.7 24.4 11.4 24.8 9.9 26.7 10 28.4 10 28.5 10 28.6 10 28.7 10.1 28.7L11.2 29.9C11.3 30 11.4 30 11.5 30 11.5 30 11.5 30 11.6 30 12 30 13.5 29.9 15.2 28.6 15.6 28.3 15.9 27.8 16.3 27.1 16.6 26.6 16.8 26 16.9 25.6 17 25.3 17.1 25.3 17.2 25.3 17.2 25.3 17.3 25.3 17.4 25.3 17.6 25.4 17.7 25.4 17.9 25.4 18.1 25.4 18.3 25.4 18.5 25.3 18.8 25.1 19 24.9 19 24.6 19 24.3 18.9 24 18.5 23.7L18.3 23.5Z" class="a"/><path d="M26.9 14.9L28 14.3C28.1 14.3 28.1 14.2 28.2 14.2L29.9 11.9C30 11.7 30 11.4 29.9 11.3L28.7 10.1C28.6 10 28.3 9.9 28.1 10.1L25.8 11.8C25.8 11.9 25.7 11.9 25.7 12L25.2 13.1 21 17.2 22.8 19 26.9 14.9Z" class="a"/><path d="M27.9 23C26.9 22 25.4 21.6 24.1 22L17.6 15.2C17.7 14.8 17.8 14.5 17.8 14.1 17.8 13 17.4 12 16.6 11.2 15.6 10.1 14 9.7 12.6 10.2 12.5 10.3 12.4 10.4 12.4 10.6 12.4 10.7 12.4 10.8 12.5 10.9L14.4 13C14.9 13.4 14.9 14.2 14.4 14.7 14 15.1 13.3 15.1 12.8 14.7L10.9 12.6C10.8 12.5 10.6 12.5 10.5 12.5 10.4 12.5 10.2 12.7 10.2 12.8 9.7 14.3 10.1 15.9 11.1 17 11.8 17.8 12.9 18.2 13.9 18.2 14.2 18.2 14.6 18.1 14.9 18L21.4 24.9C21 26.3 21.4 27.8 22.4 28.8 23.1 29.6 24.1 30 25.1 30 25.5 30 25.9 29.9 26.3 29.8 26.5 29.8 26.6 29.6 26.6 29.5 26.7 29.4 26.6 29.2 26.5 29.1L24.6 27.1C24.4 26.9 24.2 26.5 24.2 26.2 24.2 25.9 24.3 25.6 24.6 25.3 24.8 25.1 25.1 25 25.4 25 25.7 25 26 25.1 26.2 25.3L28.2 27.4C28.3 27.5 28.4 27.5 28.5 27.5 28.6 27.5 28.8 27.4 28.8 27.3 28.9 26.8 29 26.4 29 25.9 29 24.8 28.6 23.8 27.9 23Z" class="a"/></svg>